<?xml version="1.0" encoding="UTF-8" standalone="no"?>
<svg
   xmlns:dc="http://purl.org/dc/elements/1.1/"
   xmlns:cc="http://creativecommons.org/ns#"
   xmlns:rdf="http://www.w3.org/1999/02/22-rdf-syntax-ns#"
   xmlns:svg="http://www.w3.org/2000/svg"
   xmlns="http://www.w3.org/2000/svg"
   xmlns:sodipodi="http://sodipodi.sourceforge.net/DTD/sodipodi-0.dtd"
   xmlns:inkscape="http://www.inkscape.org/namespaces/inkscape"
   viewBox="0 0 245.81171 213.69532"
   height="213.69533"
   width="245.81171"
   xml:space="preserve"
   id="svg2"
   version="1.1"
   inkscape:version="0.91 r13725"
   sodipodi:docname="logo_UGent_EN_PANTONE C.svg"><sodipodi:namedview
     pagecolor="#ffffff"
     bordercolor="#666666"
     borderopacity="1"
     objecttolerance="10"
     gridtolerance="10"
     guidetolerance="10"
     inkscape:pageopacity="0"
     inkscape:pageshadow="2"
     inkscape:window-width="1858"
     inkscape:window-height="1057"
     id="namedview33"
     showgrid="false"
     fit-margin-top="0"
     fit-margin-left="0"
     fit-margin-right="0"
     fit-margin-bottom="0"
     inkscape:zoom="1"
     inkscape:cx="129.15352"
     inkscape:cy="103.56414"
     inkscape:window-x="-8"
     inkscape:window-y="-8"
     inkscape:window-maximized="1"
     inkscape:current-layer="svg2" /><metadata
     id="metadata8"><rdf:RDF><cc:Work
         rdf:about=""><dc:format>image/svg+xml</dc:format><dc:type
           rdf:resource="http://purl.org/dc/dcmitype/StillImage" /><dc:title></dc:title></cc:Work></rdf:RDF></metadata><defs
     id="defs6" /><g
     transform="matrix(4.3276968,0,0,-4.3276968,-86.83273,301.51894)"
     id="g10"><g
       transform="scale(0.1,0.1)"
       id="g12"><path
         id="path14"
         style="fill:#1476c6;fill-opacity:1;fill-rule:nonzero;stroke:none"
         d="m 312.66,524.965 12.4727,0 0,80.957 -12.4727,0 z"
         inkscape:connector-curvature="0" /><path
         id="path16"
         style="fill:#1476c6;fill-opacity:1;fill-rule:nonzero;stroke:none"
         d="m 287.719,524.965 12.4727,0 0,80.957 -12.4727,0 z"
         inkscape:connector-curvature="0" /><path
         id="path18"
         style="fill:#1476c6;fill-opacity:1;fill-rule:nonzero;stroke:none"
         d="m 262.777,524.965 12.4727,0 0,80.957 -12.4727,0 z"
         inkscape:connector-curvature="0" /><path
         id="path20"
         style="fill:#1476c6;fill-opacity:1;fill-rule:nonzero;stroke:none"
         d="m 237.836,524.965 12.4727,0 0,80.957 -12.4727,0 z"
         inkscape:connector-curvature="0" /><path
         id="path22"
         style="fill:#1476c6;fill-opacity:1;fill-rule:nonzero;stroke:none"
         d="m 337.602,524.965 12.4727,0 0,80.957 -12.4727,0 z"
         inkscape:connector-curvature="0" /><path
         id="path24"
         style="fill:#1476c6;fill-opacity:1;fill-rule:nonzero;stroke:none"
         d="m 362.543,524.965 12.4727,0 0,80.957 -12.4727,0 z"
         inkscape:connector-curvature="0" /><path
         id="path26"
         style="fill:#1476c6;fill-opacity:1;fill-rule:nonzero;stroke:none"
         d="m 387.484,524.965 12.4727,0 0,80.957 -12.4727,0 z"
         inkscape:connector-curvature="0" /><path
         id="path28"
         style="fill:#1476c6;fill-opacity:1;fill-rule:nonzero;stroke:none"
         d="m 225.066,500.016 187.66,0 0,12.4805 -187.66,0 z"
         inkscape:connector-curvature="0" /><path
         id="path30"
         style="fill:#1476c6;fill-opacity:1;fill-rule:nonzero;stroke:none"
         d="m 399.957,618.395 -162.121,0 -12.469,12.468 187.059,0 -12.469,-12.468"
         inkscape:connector-curvature="0" /><path
         id="path32"
         style="fill:#1476c6;fill-opacity:1;fill-rule:nonzero;stroke:none"
         d="m 212.598,475.074 212.598,0 0,12.4805 -212.598,0 z"
         inkscape:connector-curvature="0" /><path
         id="path34"
         style="fill:#1476c6;fill-opacity:1;fill-rule:nonzero;stroke:none"
         d="m 425.195,651.035 -106.3,37.649 -106.297,-37.649 0,-13.242 106.297,37.641 106.3,-37.641 0,13.242"
         inkscape:connector-curvature="0" /><path
         id="path36"
         style="fill:#1476c6;fill-opacity:1;fill-rule:nonzero;stroke:none"
         d="m 315.801,377.043 -26.86,0 0,-40.02 -12.48,0 0,88.172 12.48,0 0,-37.578 26.86,0 0,37.578 12.48,0 0,-88.172 -12.48,0 0,40.02"
         inkscape:connector-curvature="0" /><path
         id="path38"
         style="fill:#1476c6;fill-opacity:1;fill-rule:nonzero;stroke:none"
         d="m 589.086,291.73 c 5.508,0.016 10.703,-1.789 13.086,-3.664 l 0,11.243 c -2.383,1.464 -8.242,3.093 -14.18,3.093 -16.551,0 -25.664,-9.414 -25.664,-23.066 0,-11.387 4.824,-16.856 12.59,-23.555 l 7.098,-6.133 c 5.859,-4.902 9.492,-8.679 9.492,-16.015 0,-8.574 -5.664,-11.973 -14.168,-11.973 -6.445,0 -11.797,1.789 -14.883,3.918 l 0,-11.437 c 2.715,-1.563 8.367,-3.172 15.996,-3.153 16.512,0.039 25.625,9.422 25.645,23.067 0.011,11.375 -4.825,16.855 -12.59,23.543 l -7.09,6.144 c -5.879,5.028 -9.52,8.66 -9.5,15.985 0.023,8.613 5.645,11.984 14.168,12.003"
         inkscape:connector-curvature="0" /><path
         id="path40"
         style="fill:#1476c6;fill-opacity:1;fill-rule:nonzero;stroke:none"
         d="m 512.457,290.195 0,-31.074 6.648,0 c 9.766,0 16.282,2.051 16.282,15.606 0,13.437 -6.516,15.468 -16.282,15.468 z m -12.48,10.586 20.351,0 c 16.277,0 27.938,-6.113 27.938,-26.054 0,-13.965 -6.778,-20.743 -15.321,-23.868 l 18.719,-38.261 -14.246,0 -16.555,35.957 -8.406,0 0,-35.957 -12.48,0 0,88.183"
         inkscape:connector-curvature="0" /><path
         id="path42"
         style="fill:#1476c6;fill-opacity:1;fill-rule:nonzero;stroke:none"
         d="m 212.598,239.191 0,61.582 12.48,0 0,-62.128 c 0,-13.028 4.477,-16.817 13.567,-16.817 9.089,0 13.562,3.789 13.562,16.817 l 0,62.128 12.481,0 0,-61.582 c 0,-20.078 -8.411,-28.222 -26.043,-28.222 -17.907,0 -26.047,7.871 -26.047,28.222"
         inkscape:connector-curvature="0" /><path
         id="path44"
         style="fill:#1476c6;fill-opacity:1;fill-rule:nonzero;stroke:none"
         d="m 280.828,300.773 14.383,0 27.809,-70.265 c -0.95,7.187 -1.766,15.597 -1.766,23.469 l 0,46.796 11.937,0 0,-88.175 -14.378,0 -28.083,70.539 c 1.086,-7.188 2.04,-15.735 2.04,-23.742 l 0,-46.797 -11.942,0 0,88.175"
         inkscape:connector-curvature="0" /><path
         id="path46"
         style="fill:#1476c6;fill-opacity:1;fill-rule:nonzero;stroke:none"
         d="m 350.859,212.598 12.4805,0 0,88.1758 -12.4805,0 z"
         inkscape:connector-curvature="0" /><path
         id="path48"
         style="fill:#1476c6;fill-opacity:1;fill-rule:nonzero;stroke:none"
         d="m 374.938,300.773 13.023,0 11.121,-45.851 c 1.633,-6.926 3.66,-18.582 4.883,-27.813 1.223,9.231 3.258,20.887 5.156,27.813 l 10.984,45.851 12.622,0 -22.383,-88.175 -13.024,0 -22.382,88.175"
         inkscape:connector-curvature="0" /><path
         id="path50"
         style="fill:#1476c6;fill-opacity:1;fill-rule:nonzero;stroke:none"
         d="m 444.32,300.773 41.243,0 0,-10.585 -28.762,0 0,-26.993 23.199,0 0,-10.441 -23.199,0 0,-29.578 28.762,0 0,-10.578 -41.243,0 0,88.175"
         inkscape:connector-curvature="0" /><path
         id="path52"
         style="fill:#1476c6;fill-opacity:1;fill-rule:nonzero;stroke:none"
         d="m 618.906,212.598 12.4805,0 0,88.1758 -12.4805,0 z"
         inkscape:connector-curvature="0" /><path
         id="path54"
         style="fill:#1476c6;fill-opacity:1;fill-rule:nonzero;stroke:none"
         d="m 209.887,381.105 c 0,34.723 9.222,45.723 32.148,45.723 6.512,0 13.43,-1.769 16.41,-3.535 l 0,-11.523 c -3.25,1.89 -9.492,3.933 -15.461,3.933 -14.648,0 -20.211,-5.43 -20.211,-34.598 0,-28.886 3.938,-34.855 16.684,-34.855 3.938,0 7.188,0.535 9.629,1.223 l 0,29.433 -13.023,0 0,10.574 25.503,0 0,-47.609 c -2.578,-1.629 -12.882,-4.48 -21.972,-4.48 -23.875,0 -29.707,12.48 -29.707,45.714"
         inkscape:connector-curvature="0" /><path
         id="path56"
         style="fill:#1476c6;fill-opacity:1;fill-rule:nonzero;stroke:none"
         d="m 345.945,425.195 41.243,0 0,-10.586 -28.758,0 0,-26.992 23.195,0 0,-10.437 -23.195,0 0,-29.582 28.758,0 0,-10.575 -41.243,0 0,88.172"
         inkscape:connector-curvature="0" /><path
         id="path58"
         style="fill:#1476c6;fill-opacity:1;fill-rule:nonzero;stroke:none"
         d="m 401.602,425.195 14.378,0 27.809,-70.261 c -0.945,7.187 -1.762,15.593 -1.762,23.464 l 0,46.797 11.938,0 0,-88.172 -14.379,0 -28.082,70.536 c 1.086,-7.188 2.035,-15.731 2.035,-23.739 l 0,-46.797 -11.937,0 0,88.172"
         inkscape:connector-curvature="0" /><path
         id="path60"
         style="fill:#1476c6;fill-opacity:1;fill-rule:nonzero;stroke:none"
         d="m 465.391,425.195 50.593,0 0,-10.586 -19.125,0 0,-77.586 -12.48,0 0,77.586 -18.988,0 0,10.586"
         inkscape:connector-curvature="0" /><path
         id="path62"
         style="fill:#1476c6;fill-opacity:1;fill-rule:nonzero;stroke:none"
         d="m 722.906,249.219 -24.144,51.554 13.699,0 10.445,-23.742 c 2.442,-5.691 4.75,-11.797 6.239,-17.226 1.632,5.429 4.074,11.535 6.515,17.226 l 10.445,23.742 13.293,0 -24.011,-51.554 0,-36.621 -12.481,0 0,36.621"
         inkscape:connector-curvature="0" /><path
         id="path64"
         style="fill:#1476c6;fill-opacity:1;fill-rule:nonzero;stroke:none"
         d="m 643.238,300.773 50.594,0 0,-10.585 -19.125,0 0,-77.59 -12.48,0 0,77.59 -18.989,0 0,10.585"
         inkscape:connector-curvature="0" /></g></g></svg>